<svg xmlns="http://www.w3.org/2000/svg" viewBox="0 0 403 327" width="403" height="327">
	<style>
		tspan { white-space:pre }
		.shp0 { fill: #ff0000 }
		.shp1 { fill: #00ff00 }
		.shp2 { fill: none;stroke: #000000;stroke-width: 4 }
		.shp3 { fill: none;stroke: #000000;stroke-width: 2 }
	</style>
	<path id="Shape 2" class="shp0" d="M86 152C72.18 152 61 140.82 61 127C61 113.18 72.18 102 86 102C99.82 102 111 113.18 111 127C111 140.82 99.82 152 86 152Z" />
	<path id="Shape 2 copy" class="shp1" d="M86 217C72.18 217 61 205.82 61 192C61 178.18 72.18 167 86 167C99.82 167 111 178.18 111 192C111 205.82 99.82 217 86 217Z" />
	<path id="Shape 2 copy 2" class="shp2" d="M86 283C72.18 283 61 271.82 61 258C61 244.18 72.18 233 86 233C99.82 233 111 244.18 111 258C111 271.82 99.82 283 86 283Z" />
	<path id="Earthquake " fill="#324235" d="M147.43 133.53L147.43 137L133.3 137L133.3 112.01L147.43 112.01L147.43 115.47L137.38 115.47L137.38 122.27L146.8 122.27L146.8 125.69L137.38 125.69L137.38 133.53L147.43 133.53ZM167.1 137L164.23 137L163.43 134.37L163.29 134.37Q161.92 136.09 160.54 136.73Q159.16 137.34 156.98 137.34Q154.2 137.34 152.63 135.84Q151.07 134.33 151.07 131.58Q151.07 128.66 153.24 127.17Q155.41 125.69 159.86 125.55L163.12 125.45L163.12 124.44Q163.12 122.63 162.27 121.74Q161.43 120.83 159.65 120.83Q158.2 120.83 156.87 121.26Q155.53 121.69 154.3 122.27L153 119.4Q154.54 118.59 156.37 118.18Q158.2 117.76 159.82 117.76Q163.43 117.76 165.26 119.33Q167.1 120.9 167.1 124.27L167.1 137ZM158.25 134.27Q160.44 134.27 161.75 133.05Q163.09 131.82 163.09 129.62L163.09 127.98L160.66 128.08Q157.82 128.18 156.52 129.04Q155.24 129.87 155.24 131.62Q155.24 132.88 155.99 133.58Q156.75 134.27 158.25 134.27ZM182.29 117.76Q183.51 117.76 184.29 117.93L183.9 121.67Q183.05 121.47 182.12 121.47Q179.71 121.47 178.21 123.04Q176.72 124.61 176.72 127.12L176.72 137L172.71 137L172.71 118.1L175.85 118.1L176.38 121.43L176.59 121.43Q177.53 119.74 179.03 118.75Q180.55 117.76 182.29 117.76ZM194.84 134.09Q196.31 134.09 197.78 133.63L197.78 136.66Q197.11 136.95 196.05 137.15Q195.01 137.34 193.88 137.34Q188.17 137.34 188.17 131.33L188.17 121.14L185.59 121.14L185.59 119.36L188.36 117.89L189.73 113.89L192.21 113.89L192.21 118.1L197.59 118.1L197.59 121.14L192.21 121.14L192.21 131.26Q192.21 132.71 192.92 133.41Q193.66 134.09 194.84 134.09ZM218.18 124.68L218.18 137L214.15 137L214.15 125.38Q214.15 123.19 213.26 122.11Q212.39 121.04 210.48 121.04Q207.95 121.04 206.75 122.56Q205.57 124.06 205.57 127.62L205.57 137L201.56 137L201.56 110.41L205.57 110.41L205.57 117.16Q205.57 118.78 205.37 120.63L205.62 120.63Q206.44 119.26 207.9 118.51Q209.37 117.76 211.31 117.76Q218.18 117.76 218.18 124.68ZM231.26 134.13Q233.79 134.13 234.88 132.68Q235.99 131.21 235.99 128.25L235.99 127.62Q235.99 124.11 234.85 122.58Q233.72 121.04 231.19 121.04Q229.04 121.04 227.91 122.75Q226.78 124.46 226.78 127.65Q226.78 134.13 231.26 134.13ZM230.11 137.34Q226.61 137.34 224.63 134.78Q222.64 132.2 222.64 127.58Q222.64 122.97 224.66 120.37Q226.68 117.76 230.21 117.76Q231.99 117.76 233.39 118.42Q234.81 119.07 235.92 120.58L236.06 120.58L236.5 118.1L239.84 118.1L239.84 145.41L235.8 145.41L235.8 137.39Q235.8 136.64 235.87 135.8Q235.94 134.97 235.99 134.52L235.77 134.52Q233.99 137.34 230.11 137.34ZM262.07 137L258.91 137L258.34 134.52L258.14 134.52Q257.3 135.84 255.75 136.59Q254.21 137.34 252.23 137.34Q248.79 137.34 247.1 135.63Q245.41 133.92 245.41 130.45L245.41 118.1L249.46 118.1L249.46 129.75Q249.46 131.92 250.35 133.02Q251.24 134.09 253.13 134.09Q255.66 134.09 256.84 132.59Q258.04 131.07 258.04 127.52L258.04 118.1L262.07 118.1L262.07 137ZM282.49 137L279.62 137L278.82 134.37L278.68 134.37Q277.31 136.09 275.93 136.73Q274.55 137.34 272.38 137.34Q269.59 137.34 268.02 135.84Q266.46 134.33 266.46 131.58Q266.46 128.66 268.63 127.17Q270.8 125.69 275.25 125.55L278.51 125.45L278.51 124.44Q278.51 122.63 277.66 121.74Q276.82 120.83 275.04 120.83Q273.59 120.83 272.26 121.26Q270.92 121.69 269.69 122.27L268.39 119.4Q269.93 118.59 271.76 118.18Q273.59 117.76 275.21 117.76Q278.82 117.76 280.65 119.33Q282.49 120.9 282.49 124.27L282.49 137ZM273.64 134.27Q275.83 134.27 277.14 133.05Q278.48 131.82 278.48 129.62L278.48 127.98L276.05 128.08Q273.21 128.18 271.91 129.04Q270.63 129.87 270.63 131.62Q270.63 132.88 271.38 133.58Q272.14 134.27 273.64 134.27ZM291.88 127.02L291.98 127.02L294.25 124.18L299.96 118.1L304.59 118.1L296.98 126.22L305.07 137L300.35 137L294.28 128.71L292.08 130.52L292.08 137L288.1 137L288.1 110.41L292.08 110.41L292.08 123.38L291.88 127.02ZM316.36 137.34Q311.96 137.34 309.46 134.78Q306.98 132.2 306.98 127.69Q306.98 123.05 309.29 120.41Q311.6 117.76 315.63 117.76Q319.37 117.76 321.54 120.03Q323.71 122.3 323.71 126.28L323.71 128.46L311.12 128.46Q311.2 131.21 312.6 132.69Q314.01 134.16 316.55 134.16Q318.23 134.16 319.66 133.86Q321.12 133.53 322.77 132.8L322.77 136.06Q321.3 136.76 319.8 137.05Q318.3 137.34 316.36 137.34ZM315.63 120.8Q313.72 120.8 312.55 122.01Q311.41 123.23 311.19 125.55L319.77 125.55Q319.73 123.21 318.64 122.01Q317.54 120.8 315.63 120.8Z" />
	<path id="Map Legend " fill="#324235" d="M86.88 68L80.64 68L72.91 42.8L72.71 42.8Q73.13 50.49 73.13 53.06L73.13 68L67.04 68L67.04 35.88L76.32 35.88L83.92 60.44L84.05 60.44L92.11 35.88L101.39 35.88L101.39 68L95.04 68L95.04 52.79Q95.04 51.72 95.06 50.31Q95.1 48.91 95.37 42.84L95.17 42.84L86.88 68ZM129.23 68L124.55 68L123.25 64.66L123.07 64.66Q121.38 66.79 119.58 67.63Q117.8 68.44 114.92 68.44Q111.38 68.44 109.34 66.42Q107.32 64.4 107.32 60.66Q107.32 56.75 110.04 54.9Q112.79 53.04 118.31 52.84L122.57 52.71L122.57 51.63Q122.57 47.9 118.74 47.9Q115.8 47.9 111.82 49.67L109.6 45.15Q113.84 42.93 119.01 42.93Q123.95 42.93 126.59 45.08Q129.23 47.24 129.23 51.63L129.23 68ZM122.57 58.64L122.57 56.62L119.98 56.71Q117.05 56.79 115.62 57.76Q114.2 58.73 114.2 60.71Q114.2 63.54 117.45 63.54Q119.78 63.54 121.16 62.2Q122.57 60.86 122.57 58.64ZM149.62 68.44Q145.29 68.44 142.83 65.3L142.48 65.3Q142.83 68.37 142.83 68.86L142.83 78.81L136.13 78.81L136.13 43.43L141.57 43.43L142.52 46.62L142.83 46.62Q145.18 42.97 149.79 42.97Q154.14 42.97 156.6 46.33Q159.06 49.7 159.06 55.67Q159.06 59.61 157.9 62.51Q156.76 65.41 154.63 66.92Q152.49 68.44 149.62 68.44ZM147.64 48.33Q145.16 48.33 144.01 49.87Q142.87 51.39 142.83 54.9L142.83 55.63Q142.83 59.58 143.99 61.3Q145.18 63.01 147.73 63.01Q152.23 63.01 152.23 55.59Q152.23 51.96 151.11 50.16Q150.01 48.33 147.64 48.33ZM196.66 68L176.82 68L176.82 35.88L183.63 35.88L183.63 62.38L196.66 62.38L196.66 68ZM211.89 47.74Q209.76 47.74 208.55 49.1Q207.34 50.44 207.16 52.93L216.57 52.93Q216.52 50.44 215.27 49.1Q214.02 47.74 211.89 47.74ZM212.83 68.44Q206.9 68.44 203.56 65.17Q200.22 61.89 200.22 55.89Q200.22 49.72 203.3 46.36Q206.39 42.97 211.84 42.97Q217.05 42.97 219.95 45.94Q222.85 48.91 222.85 54.14L222.85 57.39L207.01 57.39Q207.12 60.24 208.7 61.85Q210.28 63.45 213.14 63.45Q215.36 63.45 217.34 62.99Q219.31 62.53 221.47 61.52L221.47 66.7Q219.71 67.58 217.71 68.02Q215.71 68.44 212.83 68.44ZM241.11 43.43L249.68 43.43L249.68 46.84L245.83 47.83Q246.89 49.48 246.89 51.52Q246.89 55.48 244.12 57.69Q241.37 59.89 236.47 59.89L235.27 59.83L234.28 59.72Q233.24 60.51 233.24 61.47Q233.24 62.92 236.94 62.92L241.11 62.92Q245.15 62.92 247.26 64.66Q249.39 66.4 249.39 69.76Q249.39 74.06 245.79 76.44Q242.21 78.81 235.49 78.81Q230.34 78.81 227.62 77.03Q224.92 75.23 224.92 72Q224.92 69.78 226.3 68.29Q227.69 66.79 230.37 66.15Q229.33 65.71 228.56 64.73Q227.79 63.72 227.79 62.59Q227.79 61.19 228.61 60.27Q229.42 59.32 230.96 58.42Q229.03 57.58 227.88 55.74Q226.76 53.89 226.76 51.39Q226.76 47.37 229.38 45.17Q231.99 42.97 236.85 42.97Q237.88 42.97 239.29 43.17Q240.71 43.35 241.11 43.43ZM230.72 71.47Q230.72 72.86 232.04 73.65Q233.38 74.44 235.77 74.44Q239.37 74.44 241.42 73.45Q243.46 72.46 243.46 70.75Q243.46 69.36 242.25 68.83Q241.04 68.31 238.52 68.31L235.05 68.31Q233.2 68.31 231.95 69.19Q230.72 70.04 230.72 71.47ZM233.16 51.48Q233.16 53.48 234.06 54.64Q234.98 55.81 236.85 55.81Q238.74 55.81 239.62 54.64Q240.5 53.48 240.5 51.48Q240.5 47.04 236.85 47.04Q233.16 47.04 233.16 51.48ZM263.9 47.74Q261.76 47.74 260.56 49.1Q259.35 50.44 259.17 52.93L268.58 52.93Q268.53 50.44 267.28 49.1Q266.03 47.74 263.9 47.74ZM264.84 68.44Q258.91 68.44 255.57 65.17Q252.23 61.89 252.23 55.89Q252.23 49.72 255.3 46.36Q258.4 42.97 263.85 42.97Q269.06 42.97 271.96 45.94Q274.86 48.91 274.86 54.14L274.86 57.39L259.02 57.39Q259.13 60.24 260.71 61.85Q262.29 63.45 265.15 63.45Q267.37 63.45 269.35 62.99Q271.32 62.53 273.48 61.52L273.48 66.7Q271.72 67.58 269.72 68.02Q267.72 68.44 264.84 68.44ZM302.99 51.98L302.99 68L296.28 68L296.28 53.65Q296.28 50.99 295.34 49.67Q294.39 48.33 292.33 48.33Q289.52 48.33 288.26 50.22Q287.01 52.09 287.01 56.44L287.01 68L280.31 68L280.31 43.43L285.43 43.43L286.33 46.58L286.7 46.58Q287.82 44.8 289.78 43.9Q291.76 42.97 294.26 42.97Q298.55 42.97 300.77 45.3Q302.99 47.61 302.99 51.98ZM317.66 68.44Q313.33 68.44 310.85 65.08Q308.39 61.72 308.39 55.76Q308.39 49.72 310.9 46.36Q313.42 42.97 317.84 42.97Q322.48 42.97 324.91 46.58L325.13 46.58Q324.63 43.83 324.63 41.68L324.63 33.81L331.35 33.81L331.35 68L326.21 68L324.91 64.81L324.63 64.81Q322.34 68.44 317.66 68.44ZM320.01 63.1Q322.58 63.1 323.77 61.61Q324.98 60.11 325.09 56.53L325.09 55.81Q325.09 51.85 323.86 50.14Q322.65 48.42 319.9 48.42Q317.66 48.42 316.41 50.33Q315.18 52.22 315.18 55.85Q315.18 59.47 316.43 61.3Q317.69 63.1 320.01 63.1Z" />
	<path id="Shape 3" class="shp3" d="M22 13L386 13L386 306L22 306L22 13Z" />
	<path id="Quarry Blast " fill="#324235" d="M156.48 189.47Q156.48 194.02 154.74 197.13Q153.01 200.24 149.7 201.5L155.68 207.95L150.17 207.95L145.46 202.34L144.79 202.34Q139.13 202.34 136.09 198.99Q133.07 195.63 133.07 189.44Q133.07 183.25 136.11 179.94Q139.17 176.62 144.83 176.62Q150.4 176.62 153.44 179.99Q156.48 183.35 156.48 189.47ZM137.41 189.47Q137.41 194.09 139.27 196.48Q141.13 198.86 144.79 198.86Q148.43 198.86 150.28 196.5Q152.14 194.14 152.14 189.47Q152.14 184.88 150.29 182.5Q148.47 180.13 144.83 180.13Q141.15 180.13 139.27 182.5Q137.41 184.88 137.41 189.47ZM177.91 202L174.75 202L174.19 199.52L173.98 199.52Q173.14 200.84 171.59 201.59Q170.05 202.34 168.07 202.34Q164.63 202.34 162.94 200.63Q161.25 198.92 161.25 195.45L161.25 183.1L165.3 183.1L165.3 194.75Q165.3 196.92 166.19 198.02Q167.08 199.09 168.97 199.09Q171.5 199.09 172.68 197.59Q173.88 196.07 173.88 192.52L173.88 183.1L177.91 183.1L177.91 202ZM198.33 202L195.46 202L194.66 199.37L194.52 199.37Q193.16 201.09 191.77 201.73Q190.39 202.34 188.22 202.34Q185.43 202.34 183.86 200.84Q182.3 199.33 182.3 196.58Q182.3 193.66 184.47 192.17Q186.64 190.69 191.09 190.55L194.35 190.45L194.35 189.44Q194.35 187.63 193.5 186.74Q192.66 185.83 190.88 185.83Q189.43 185.83 188.1 186.26Q186.76 186.69 185.53 187.27L184.23 184.4Q185.77 183.59 187.6 183.18Q189.43 182.76 191.05 182.76Q194.66 182.76 196.49 184.33Q198.33 185.9 198.33 189.27L198.33 202ZM189.48 199.27Q191.67 199.27 192.98 198.05Q194.32 196.82 194.32 194.62L194.32 192.98L191.89 193.08Q189.05 193.18 187.76 194.04Q186.47 194.87 186.47 196.62Q186.47 197.88 187.23 198.58Q187.98 199.27 189.48 199.27ZM213.53 182.76Q214.74 182.76 215.53 182.93L215.13 186.67Q214.28 186.47 213.36 186.47Q210.95 186.47 209.44 188.04Q207.96 189.61 207.96 192.12L207.96 202L203.94 202L203.94 183.1L207.08 183.1L207.61 186.43L207.82 186.43Q208.76 184.74 210.26 183.75Q211.78 182.76 213.53 182.76ZM228.62 182.76Q229.83 182.76 230.62 182.93L230.22 186.67Q229.37 186.47 228.45 186.47Q226.04 186.47 224.53 188.04Q223.05 189.61 223.05 192.12L223.05 202L219.03 202L219.03 183.1L222.17 183.1L222.7 186.43L222.91 186.43Q223.85 184.74 225.35 183.75Q226.87 182.76 228.62 182.76ZM238.84 202L231.25 183.1L235.62 183.1L239.47 193.81Q240.34 196.1 240.63 198.12L240.77 198.12Q240.92 197.18 241.33 195.85Q241.74 194.5 245.67 183.1L250.01 183.1L241.93 204.51Q239.73 210.41 234.58 210.41Q233.25 210.41 231.98 210.12L231.98 206.94Q232.89 207.14 234.05 207.14Q236.96 207.14 238.14 203.78L238.84 202ZM262.4 202L262.4 177.01L269.82 177.01Q274.98 177.01 277.27 178.52Q279.58 180.02 279.58 183.27Q279.58 185.46 278.45 186.91Q277.32 188.36 275.2 188.74L275.2 188.91Q277.84 189.4 279.07 190.87Q280.31 192.33 280.31 194.82Q280.31 198.19 277.96 200.1Q275.61 202 271.43 202L262.4 202ZM266.49 180.43L266.49 187.34L270.42 187.34Q272.98 187.34 274.16 186.53Q275.34 185.71 275.34 183.77Q275.34 182 274.06 181.22Q272.79 180.43 270.03 180.43L266.49 180.43ZM270.62 190.65L266.49 190.65L266.49 198.56L270.83 198.56Q273.39 198.56 274.69 197.59Q276.01 196.6 276.01 194.48Q276.01 192.53 274.67 191.59Q273.34 190.65 270.62 190.65ZM289.1 175.41L289.1 202L285.08 202L285.08 175.41L289.1 175.41ZM309.54 202L306.67 202L305.86 199.37L305.73 199.37Q304.36 201.09 302.98 201.73Q301.59 202.34 299.42 202.34Q296.63 202.34 295.06 200.84Q293.51 199.33 293.51 196.58Q293.51 193.66 295.68 192.17Q297.85 190.69 302.29 190.55L305.56 190.45L305.56 189.44Q305.56 187.63 304.7 186.74Q303.86 185.83 302.09 185.83Q300.63 185.83 299.3 186.26Q297.97 186.69 296.74 187.27L295.44 184.4Q296.98 183.59 298.81 183.18Q300.63 182.76 302.26 182.76Q305.86 182.76 307.69 184.33Q309.54 185.9 309.54 189.27L309.54 202ZM300.69 199.27Q302.87 199.27 304.19 198.05Q305.52 196.82 305.52 194.62L305.52 192.98L303.09 193.08Q300.26 193.18 298.96 194.04Q297.68 194.87 297.68 196.62Q297.68 197.88 298.43 198.58Q299.18 199.27 300.69 199.27ZM327.84 196.62Q327.84 199.39 325.82 200.87Q323.81 202.34 320.05 202.34Q316.27 202.34 313.98 201.2L313.98 197.73Q317.31 199.27 320.18 199.27Q323.89 199.27 323.89 197.03Q323.89 196.31 323.48 195.83Q323.07 195.35 322.13 194.84Q321.19 194.33 319.52 193.68Q316.25 192.41 315.09 191.15Q313.95 189.88 313.95 187.87Q313.95 185.44 315.9 184.11Q317.86 182.76 321.23 182.76Q324.56 182.76 327.53 184.11L326.23 187.13Q323.18 185.87 321.09 185.87Q317.91 185.87 317.91 187.68Q317.91 188.57 318.73 189.18Q319.57 189.8 322.35 190.87Q324.7 191.78 325.76 192.53Q326.82 193.28 327.33 194.28Q327.84 195.25 327.84 196.62ZM339.22 199.09Q340.69 199.09 342.16 198.63L342.16 201.66Q341.5 201.95 340.44 202.15Q339.39 202.34 338.27 202.34Q332.56 202.34 332.56 196.33L332.56 186.14L329.98 186.14L329.98 184.36L332.75 182.89L334.11 178.89L336.59 178.89L336.59 183.1L341.97 183.1L341.97 186.14L336.59 186.14L336.59 196.26Q336.59 197.71 337.31 198.41Q338.04 199.09 339.22 199.09Z" />
	<path id="Reviewed " fill="#324235" d="M137.38 251.47L137.38 259.64L140.22 259.64Q143.07 259.64 144.36 258.58Q145.64 257.52 145.64 255.43Q145.64 253.31 144.25 252.39Q142.87 251.47 140.08 251.47L137.38 251.47ZM141.42 263.02L137.38 263.02L137.38 273L133.3 273L133.3 248.01L140.36 248.01Q145.19 248.01 147.52 249.83Q149.84 251.64 149.84 255.29Q149.84 259.96 144.99 261.94L152.05 273L147.4 273L141.42 263.02ZM163.5 273.34Q159.09 273.34 156.59 270.78Q154.11 268.2 154.11 263.69Q154.11 259.05 156.42 256.41Q158.73 253.76 162.76 253.76Q166.5 253.76 168.67 256.03Q170.84 258.3 170.84 262.28L170.84 264.46L158.25 264.46Q158.33 267.21 159.74 268.69Q161.14 270.16 163.68 270.16Q165.36 270.16 166.79 269.86Q168.25 269.53 169.9 268.8L169.9 272.06Q168.44 272.76 166.93 273.05Q165.43 273.34 163.5 273.34ZM162.76 256.8Q160.85 256.8 159.69 258.01Q158.54 259.23 158.32 261.55L166.9 261.55Q166.86 259.21 165.77 258.01Q164.68 256.8 162.76 256.8ZM184.06 273L179.71 273L172.54 254.1L176.77 254.1L180.62 265.09Q181.61 267.86 181.82 269.56L181.95 269.56Q182.11 268.33 183.15 265.09L186.99 254.1L191.27 254.1L184.06 273ZM198.15 254.1L198.15 273L194.14 273L194.14 254.1L198.15 254.1ZM193.9 249.09Q193.9 248.01 194.48 247.43Q195.08 246.85 196.17 246.85Q197.23 246.85 197.81 247.43Q198.41 248.01 198.41 249.09Q198.41 250.12 197.81 250.71Q197.23 251.3 196.17 251.3Q195.08 251.3 194.48 250.71Q193.9 250.12 193.9 249.09ZM212.15 273.34Q207.74 273.34 205.25 270.78Q202.77 268.2 202.77 263.69Q202.77 259.05 205.08 256.41Q207.38 253.76 211.42 253.76Q215.16 253.76 217.33 256.03Q219.5 258.3 219.5 262.28L219.5 264.46L206.9 264.46Q206.99 267.21 208.39 268.69Q209.79 270.16 212.34 270.16Q214.01 270.16 215.45 269.86Q216.9 269.53 218.56 268.8L218.56 272.06Q217.09 272.76 215.59 273.05Q214.08 273.34 212.15 273.34ZM211.42 256.8Q209.5 256.8 208.34 258.01Q207.19 259.23 206.97 261.55L215.55 261.55Q215.52 259.21 214.42 258.01Q213.33 256.8 211.42 256.8ZM244.07 273L239.56 273L237.12 264.18Q236.67 262.78 235.51 257.67L235.36 257.67Q234.37 262.28 233.79 264.22L231.27 273L226.83 273L221.53 254.1L225.63 254.1L228.04 263.41Q228.86 266.86 229.21 269.33L229.31 269.33Q229.48 268.08 229.82 266.47Q230.18 264.85 230.44 264.04L233.31 254.1L237.72 254.1L240.5 264.04Q240.76 264.88 241.14 266.61Q241.53 268.33 241.6 269.29L241.73 269.29Q241.99 267.19 242.93 263.41L245.37 254.1L249.41 254.1L244.07 273ZM260.91 273.34Q256.5 273.34 254 270.78Q251.53 268.2 251.53 263.69Q251.53 259.05 253.83 256.41Q256.14 253.76 260.17 253.76Q263.92 253.76 266.09 256.03Q268.26 258.3 268.26 262.28L268.26 264.46L255.66 264.46Q255.75 267.21 257.15 268.69Q258.55 270.16 261.1 270.16Q262.77 270.16 264.21 269.86Q265.66 269.53 267.32 268.8L267.32 272.06Q265.85 272.76 264.34 273.05Q262.84 273.34 260.91 273.34ZM260.17 256.8Q258.26 256.8 257.1 258.01Q255.95 259.23 255.73 261.55L264.31 261.55Q264.27 259.21 263.18 258.01Q262.09 256.8 260.17 256.8ZM279.19 273.34Q275.66 273.34 273.67 270.78Q271.69 268.21 271.69 263.58Q271.69 258.94 273.69 256.35Q275.71 253.76 279.26 253.76Q282.99 253.76 284.94 256.51L285.14 256.51Q284.85 254.47 284.85 253.3L284.85 246.41L288.88 246.41L288.88 273L285.74 273L285.04 270.52L284.85 270.52Q282.92 273.34 279.19 273.34ZM280.27 270.09Q282.75 270.09 283.88 268.71Q285 267.31 285.04 264.18L285.04 263.62Q285.04 260.05 283.88 258.54Q282.71 257.04 280.24 257.04Q278.12 257.04 276.97 258.76Q275.83 260.47 275.83 263.65Q275.83 266.8 276.94 268.45Q278.05 270.09 280.27 270.09Z" />
</svg>
